<svg id="Layer_1" data-name="Layer 1" xmlns="http://www.w3.org/2000/svg" width="160.6" height="52.4" viewBox="0 0 160.6 52.4">
  <defs>
    <style>
      .cls-1 {
        fill: #fff;
      }
    </style>
  </defs>
  <title>logo-white-2</title>
  <path class="cls-1" d="M159.3,22.8c1-.2,1.5-2.1,1.2-4.1s-1.5-3.6-2.6-3.5-1.6,2.1-1.2,4.1C148.8,7.4,137.5,0,131.3,0a5.2,5.2,0,0,0-2.1.4h0c-6.3,2.6,9.7,27.5,17.6,36.7,0,0-8.5,3.3-7.4,6s4.2,3.5,7.9,4.8l-3.8,4.5c1.8-1.4,3.3-2.8,4.7-4.1a30.4,30.4,0,0,0,3.7,1.1c1,.3,5.6,1.5,4.9-1.6-.3-1.4-1.7-3.1-3.5-4.8,4-4.6,5-7.3,5-7.3a14.8,14.8,0,0,0,.4-13ZM143,41h0c-.1-1.4,4.3-3.3,4.3-3.3l4.3,4.7c-.7.9-1.4,2-2.4,3.2C145.9,44.1,143.2,42.4,143,41Zm12.1,5.8c0,.4-.3.5-.8.5a13.6,13.6,0,0,1-3.9-1.2h0l2.4-2.5C155.1,46.1,155.1,46.8,155.1,46.8Zm-3-5.1L148,37.4h0c1.6-.8,7.8-3.7,7.4-1.7C155.4,35.7,155.1,37.3,152.1,41.7Zm-4.6-4.9a103.8,103.8,0,0,1-10.4-15.1h0c-4-6.5-7.6-14.4-1.7-14.9,8-.7,20.7,9.6,20.7,20.1C156.1,32.5,152.2,34.7,147.5,36.8Z"/>
  <g>
    <path class="cls-1" d="M1,38.5V34.7a19.6,19.6,0,0,0,3.2,1.7,11.9,11.9,0,0,0,2.6.5,4.1,4.1,0,0,0,1.9-.4,1.3,1.3,0,0,0,.7-1.2,1.3,1.3,0,0,0-.4-1,6.6,6.6,0,0,0-1.9-.9A14.5,14.5,0,0,1,2,30.8,4.5,4.5,0,0,1,.7,27.3a3.9,3.9,0,0,1,1.8-3.5,7.1,7.1,0,0,1,4.7-1.4l2.9.3A14.5,14.5,0,0,1,13,23.8v3.5A12,12,0,0,0,9.9,26a7.3,7.3,0,0,0-2.5-.4,3.1,3.1,0,0,0-1.9.3,1.2,1.2,0,0,0-.7,1A2.4,2.4,0,0,0,5.4,28l1.8.9.7.3a21.7,21.7,0,0,1,3.5,1.5,3.7,3.7,0,0,1,1.7,1.8,5.4,5.4,0,0,1,.6,2.5,4.6,4.6,0,0,1-1.8,3.8,8.3,8.3,0,0,1-5,1.4,10.6,10.6,0,0,1-3.1-.5A7,7,0,0,1,1,38.5Z"/>
    <path class="cls-1" d="M16.8,39.9V22.7h3.8l5.6,6.9,5.5-6.9h3.8V39.9H31.3V29.3l-5.1,6.2-5.1-6.2V39.9Z"/>
    <path class="cls-1" d="M38.6,31.3a8.5,8.5,0,0,1,2.7-6.5,9.2,9.2,0,0,1,3-1.8,11.5,11.5,0,0,1,3.7-.6,11.9,11.9,0,0,1,3.7.6,9.2,9.2,0,0,1,3,1.8,11.5,11.5,0,0,1,2,2.9,9.2,9.2,0,0,1,.7,3.6,8.4,8.4,0,0,1-.7,3.5,9.4,9.4,0,0,1-5,4.8,11.9,11.9,0,0,1-3.7.6,11.5,11.5,0,0,1-3.7-.6,8.3,8.3,0,0,1-5-4.7A9.2,9.2,0,0,1,38.6,31.3Zm4.4,0a5.7,5.7,0,0,0,1.4,3.8,5,5,0,0,0,7,.1.1.1,0,0,1,.1-.1,5.9,5.9,0,0,0,0-7.6A4.8,4.8,0,0,0,47.9,26a4.7,4.7,0,0,0-3.5,1.5A5.7,5.7,0,0,0,43,31.3Z"/>
    <path class="cls-1" d="M60.4,39.9V22.7h4.3V36.6h7.4v3.3Z"/>
    <path class="cls-1" d="M75.3,39.9V22.7h4.3V36.6H87v3.3Z"/>
    <path class="cls-1" d="M88.6,39.9l7.5-17.2h5l6.7,17.2h-4.5L102,36.6H94.6l-1.4,3.3Zm7.2-6.3h5.1l-2.4-6.5Z"/>
    <path class="cls-1" d="M113.9,29.1V39.9h-4.2V22.7h3.8l9.2,10.2V22.7h4.2V39.9h-3.3Z"/>
  </g>
</svg>
